HIERARCHY
ROOT Hips
{
	OFFSET 0.000000 0.000000 0.000000
	CHANNELS 6 Xposition Yposition Zposition Xrotation Yrotation Zrotation
	JOINT LeftUpLeg_virtual
	{
		OFFSET 0.000000 0.000000 0.000000
		CHANNELS 3 Xrotation Yrotation Zrotation
		JOINT LeftUpLeg
		{
			OFFSET 15.427100 -6.655098 0.678600
			CHANNELS 3 Xrotation Yrotation Zrotation
			JOINT LeftLeg
			{
				OFFSET 4.081073 -39.591068 13.024000
				CHANNELS 3 Xrotation Yrotation Zrotation
				JOINT LeftFoot
				{
					OFFSET -4.081074 -37.707932 -15.979700
					CHANNELS 3 Xrotation Yrotation Zrotation
					JOINT LeftToeBase
					{
						OFFSET 5.346399 -15.068900 20.645000
						CHANNELS 3 Xrotation Yrotation Zrotation
						JOINT LeftToe_End
						{
							OFFSET 2.754700 0.931300 11.300900
							CHANNELS 3 Xrotation Yrotation Zrotation
							End Site
							{
								OFFSET 0 0 0
							}
						}
					}
				}
			}
		}
	}
	JOINT RightUpLeg_virtual
	{
		OFFSET 0.000000 0.000000 0.000000
		CHANNELS 3 Xrotation Yrotation Zrotation
		JOINT RightUpLeg
		{
			OFFSET -15.569500 -6.655098 0.678600
			CHANNELS 3 Xrotation Yrotation Zrotation
			JOINT RightLeg
			{
				OFFSET -4.081825 -39.591045 13.023800
				CHANNELS 3 Xrotation Yrotation Zrotation
				JOINT RightFoot
				{
					OFFSET 4.081824 -37.707954 -15.979600
					CHANNELS 3 Xrotation Yrotation Zrotation
					JOINT RightToeBase
					{
						OFFSET -5.346400 -15.068900 20.645000
						CHANNELS 3 Xrotation Yrotation Zrotation
						JOINT RightToe_End
						{
							OFFSET -2.754700 0.931300 11.300900
							CHANNELS 3 Xrotation Yrotation Zrotation
							End Site
							{
								OFFSET 0 0 0
							}
						}
					}
				}
			}
		}
	}
	JOINT Spine_virtual
	{
		OFFSET 0.000000 0.000000 0.000000
		CHANNELS 3 Xrotation Yrotation Zrotation
		JOINT Spine
		{
			OFFSET -0.279200 12.230698 -2.892100
			CHANNELS 3 Xrotation Yrotation Zrotation
			JOINT Spine1
			{
				OFFSET -0.232667 10.192268 -1.242267
				CHANNELS 3 Xrotation Yrotation Zrotation
				JOINT Spine1_split
				{
					OFFSET -0.232667 10.192268 -1.242267
					CHANNELS 3 Xrotation Yrotation Zrotation
					JOINT Spine2
					{
						OFFSET -0.232667 10.192268 -1.242267
						CHANNELS 3 Xrotation Yrotation Zrotation
						JOINT Neck_virtual
						{
							OFFSET 0.000000 0.000000 0.000000
							CHANNELS 3 Xrotation Yrotation Zrotation
							JOINT Neck
							{
								OFFSET -0.418800 17.814194 8.416900
								CHANNELS 3 Xrotation Yrotation Zrotation
								JOINT Head
								{
									OFFSET 0.000000 7.031097 3.806800
									CHANNELS 3 Xrotation Yrotation Zrotation
									JOINT HeadTop_End
									{
										OFFSET 0.000000 24.646606 12.978600
										CHANNELS 3 Xrotation Yrotation Zrotation
										End Site
										{
											OFFSET 0 0 0
										}
									}
								}
							}
						}
						JOINT LeftShoulder_virtual
						{
							OFFSET 0.000000 0.000000 0.000000
							CHANNELS 3 Xrotation Yrotation Zrotation
							JOINT LeftShoulder
							{
								OFFSET 8.476499 7.247704 -3.868750
								CHANNELS 3 Xrotation Yrotation Zrotation
								JOINT LeftShoulder_split
								{
									OFFSET 8.476499 7.247704 -3.868750
									CHANNELS 3 Xrotation Yrotation Zrotation
									JOINT LeftArm
									{
										OFFSET 9.308998 -2.777710 0.208600
										CHANNELS 3 Xrotation Yrotation Zrotation
										JOINT LeftForeArm
										{
											OFFSET 29.972298 0.000000 0.000000
											CHANNELS 3 Xrotation Yrotation Zrotation
											JOINT LeftHand
											{
												OFFSET 26.026505 0.000000 0.000000
												CHANNELS 3 Xrotation Yrotation Zrotation
												End Site
												{
													OFFSET 0 0 0
												}
											}
										}
									}
								}
							}
						}
						JOINT RightShoulder_virtual
						{
							OFFSET 0.000000 0.000000 0.000000
							CHANNELS 3 Xrotation Yrotation Zrotation
							JOINT RightShoulder
							{
								OFFSET -7.570500 7.247704 -3.868750
								CHANNELS 3 Xrotation Yrotation Zrotation
								JOINT RightShoulder_split
								{
									OFFSET -7.570500 7.247704 -3.868750
									CHANNELS 3 Xrotation Yrotation Zrotation
									JOINT RightArm
									{
										OFFSET -9.308998 -2.777710 0.208500
										CHANNELS 3 Xrotation Yrotation Zrotation
										JOINT RightForeArm
										{
											OFFSET -29.972300 0.000000 0.000000
											CHANNELS 3 Xrotation Yrotation Zrotation
											JOINT RightHand
											{
												OFFSET -26.026505 0.000000 0.000000
												CHANNELS 3 Xrotation Yrotation Zrotation
												End Site
												{
													OFFSET 0 0 0
												}
											}
										}
									}
								}
							}
						}
					}
				}
			}
		}
	}
}
MOTION
Frames: 8
Frame Time: 0.03333333
13.997828 70.607208 -5.090611 0.000000 0.000000 0.000000 50.241058 -82.160250 50.894615 -28.274343 -12.791269 30.416089 47.435910 -11.287951 8.396682 -24.050985 2.050439 -26.436420 -14.826068 -0.000009 0.000001 0.000000 0.000000 0.000000 50.241058 -82.160250 50.894615 -18.084937 8.887253 -34.163022 44.261234 9.109153 -7.781595 -34.921763 -1.815467 27.451657 -8.821579 -0.000007 0.000002 0.000000 0.000000 0.000000 50.241058 -82.160250 50.894615 1.239062 4.846867 3.172472 1.621329 3.844480 0.818266 0.000000 0.000000 0.000000 0.000000 0.000000 0.000000 1.538157 3.914636 0.837149 -4.079162 9.240774 -1.109267 -3.116174 44.156808 -2.045573 0.000000 0.000000 0.000000 1.538157 3.914636 0.837149 0.787338 9.731770 -8.832563 0.000000 0.000000 0.000000 -10.163138 11.269039 -65.934439 -179.999964 -63.581842 -179.999978 0.000000 0.000000 0.000000 1.538157 3.914636 0.837149 0.469774 13.491800 10.835796 0.000000 0.000000 0.000000 -9.891342 36.257212 44.312403 -179.999759 78.869212 179.999773 0.000000 0.000000 0.000000 
13.638946 70.503860 -5.174858 0.000000 0.000000 0.000000 35.177083 -81.669139 35.529640 -27.206477 -13.031443 30.688272 46.534181 -11.033534 8.379714 -25.586187 1.143177 -26.176702 -13.628656 0.000023 0.000007 0.000000 0.000000 0.000000 35.177083 -81.669139 35.529640 -16.187798 7.997819 -34.259706 44.895571 9.531222 -7.754733 -33.857958 -2.072823 28.338375 -10.408200 -0.000021 -0.000015 0.000000 0.000000 0.000000 35.177083 -81.669139 35.529640 1.309288 4.490754 3.523889 1.674577 3.524484 1.048239 0.000000 0.000000 0.000000 0.000000 0.000000 0.000000 1.609791 3.584459 1.064621 -2.945498 8.978258 -1.211497 -3.441614 42.960411 -1.394686 0.000000 0.000000 0.000000 1.609791 3.584459 1.064621 0.654793 7.533259 -7.402832 0.000000 0.000000 0.000000 -5.403845 12.550901 -68.677764 179.999964 -61.750279 179.999978 0.000000 0.000000 0.000000 1.609791 3.584459 1.064621 0.654559 13.133330 8.324369 0.000000 0.000000 0.000000 -11.309115 35.091360 48.626862 -179.999991 78.103684 180.000005 0.000000 0.000000 0.000000 
12.206133 74.711273 -5.212685 0.000000 0.000000 0.000000 16.611080 -77.742156 16.950873 -28.706223 -10.685409 28.978304 41.064931 -10.813746 8.777982 -19.295426 -7.077825 -26.902729 -14.683525 -0.000003 -0.000000 0.000000 0.000000 0.000000 16.611080 -77.742156 16.950873 -12.215216 3.509135 -32.793347 41.700432 10.583958 -8.235612 -25.449454 -2.678676 28.684506 -17.632605 0.000001 0.000003 0.000000 0.000000 0.000000 16.611080 -77.742156 16.950873 0.983053 4.562937 3.870588 1.364927 3.425535 0.933034 0.000000 0.000000 0.000000 0.000000 0.000000 0.000000 1.299351 3.485007 0.928855 -2.094437 8.124937 -1.381035 -2.236922 38.340755 -0.194028 0.000000 0.000000 0.000000 1.299351 3.485007 0.928855 0.623447 7.184064 -6.717687 0.000000 0.000000 0.000000 -3.255295 6.222751 -65.186287 -179.999950 -62.493635 -179.999978 0.000000 0.000000 0.000000 1.299351 3.485007 0.928855 0.732047 11.989981 7.098540 0.000000 0.000000 0.000000 -9.801461 33.018903 50.192707 -179.999841 75.039955 179.999855 0.000000 0.000000 0.000000 
10.636055 81.090752 -6.107536 0.000000 0.000000 0.000000 8.794633 -71.380777 9.516621 -31.934830 -6.803498 25.520742 32.705548 -11.054832 9.703790 -5.813899 -18.874283 -25.766371 -19.819780 -0.000010 0.000004 0.000000 0.000000 0.000000 8.794633 -71.380777 9.516621 -10.138570 -0.705958 -30.798925 38.777494 10.647381 -7.685831 -10.015847 -2.475001 28.606238 -24.687270 0.000011 0.000005 0.000000 0.000000 0.000000 8.794633 -71.380777 9.516621 0.422028 4.895967 3.537758 0.852121 3.485847 0.754326 0.000000 0.000000 0.000000 0.000000 0.000000 0.000000 0.783428 3.538959 0.730217 -1.187059 7.052539 -1.747765 -0.532125 32.436811 0.464400 0.000000 0.000000 0.000000 0.783428 3.538959 0.730217 0.631626 7.428705 -6.398274 0.000000 0.000000 0.000000 -3.535918 -2.425794 -59.961520 -179.999964 -64.101052 -179.999964 0.000000 0.000000 0.000000 0.783428 3.538959 0.730217 0.774066 11.005998 6.249560 0.000000 0.000000 0.000000 -7.836071 30.143571 49.304612 -179.999909 71.600176 179.999923 0.000000 0.000000 0.000000 
9.536421 87.627335 -7.600407 0.000000 0.000000 0.000000 5.262206 -64.288630 6.993763 -32.724529 -2.924816 21.240758 22.147303 -10.432979 8.849827 13.199005 -24.364757 -19.474780 -14.203319 0.069501 -2.924006 0.000000 0.000000 0.000000 5.262206 -64.288630 6.993763 -11.028158 -2.537634 -28.812084 37.769392 9.667436 -6.194903 8.370642 1.156740 24.181911 -29.459999 -1.411965 6.999226 0.000000 0.000000 0.000000 5.262206 -64.288630 6.993763 0.041291 4.822930 2.351385 0.447786 3.414561 0.672031 0.000000 0.000000 0.000000 0.000000 0.000000 0.000000 0.384779 3.459937 0.635139 -0.066089 6.023364 -2.092370 1.041130 26.981337 0.476842 0.000000 0.000000 0.000000 0.384779 3.459937 0.635139 0.699286 5.760010 -6.278175 0.000000 0.000000 0.000000 -4.279824 -7.456913 -56.699108 179.999991 -65.285605 -179.999991 0.000000 0.000000 0.000000 0.384779 3.459937 0.635139 0.767346 10.535636 6.363164 0.000000 0.000000 0.000000 -5.778221 26.229118 45.684779 -179.999937 68.887854 179.999950 0.000000 0.000000 0.000000 
8.848785 93.396851 -8.297634 0.000000 0.000000 0.000000 3.729656 -58.422269 5.723393 -30.294908 0.319346 18.737446 14.477030 -10.886551 5.973166 22.949352 -15.049243 -16.402527 -1.820813 0.081958 -3.254363 0.000000 0.000000 0.000000 3.729656 -58.422269 5.723393 -12.027497 -3.321663 -24.618128 34.785129 9.785989 -4.660589 20.379394 3.184782 12.988149 -32.652928 -7.505022 11.814130 0.000000 0.000000 0.000000 3.729656 -58.422269 5.723393 -0.123707 4.285898 2.072820 0.247769 3.118944 0.650667 0.000000 0.000000 0.000000 0.000000 0.000000 0.000000 0.190741 3.164392 0.607545 0.410423 5.342816 -2.284646 1.788337 23.331002 0.742203 0.000000 0.000000 0.000000 0.190741 3.164392 0.607545 0.784879 4.211132 -6.789352 0.000000 0.000000 0.000000 -3.975722 -9.440267 -55.110863 179.999964 -65.749901 179.999964 0.000000 0.000000 0.000000 0.190741 3.164392 0.607545 0.701145 9.829429 7.579465 0.000000 0.000000 0.000000 -2.955947 23.088901 39.872360 -179.999964 67.471744 179.999950 0.000000 0.000000 0.000000 
8.457270 97.691772 -8.665855 0.000000 0.000000 0.000000 3.552860 -54.352986 5.725919 -28.499734 2.922630 18.084709 15.720408 -10.834477 3.612390 15.615938 -3.732169 -20.517741 2.625893 -0.000012 -0.000003 0.000000 0.000000 0.000000 3.552860 -54.352986 5.725919 -14.893478 -0.697348 -22.820588 37.786854 6.224228 -4.759323 14.052873 2.430321 10.625672 -2.672893 -0.696777 9.805248 0.000000 0.000000 0.000000 3.552860 -54.352986 5.725919 0.250139 3.431208 1.619353 0.547867 2.691313 0.398641 0.000000 0.000000 0.000000 0.000000 0.000000 0.000000 0.502950 2.736610 0.358698 -0.106717 5.130834 -2.416549 1.701857 21.957752 0.951249 0.000000 0.000000 0.000000 0.502950 2.736610 0.358698 0.836696 3.825862 -7.678218 0.000000 0.000000 0.000000 -4.731126 -9.787493 -54.636722 -179.999964 -65.561852 -179.999950 0.000000 0.000000 0.000000 0.502950 2.736610 0.358698 0.664578 9.188770 7.779017 0.000000 0.000000 0.000000 -1.851461 21.397005 36.493745 -179.999978 68.113542 179.999991 0.000000 0.000000 0.000000 
8.155601 100.036736 -8.886211 0.000000 0.000000 0.000000 3.628415 -50.450796 6.224113 -26.300825 4.901782 16.864796 18.289196 -10.625630 1.771364 12.210286 1.210362 -23.290436 0.437629 -0.000007 -0.000002 0.000000 0.000000 0.000000 3.628415 -50.450796 6.224113 -18.949038 1.289666 -22.062066 38.379318 5.824247 -4.732517 9.142761 2.193431 12.550489 -0.701088 0.000005 0.000004 0.000000 0.000000 0.000000 3.628415 -50.450796 6.224113 0.978824 2.244652 0.558929 1.199873 2.076386 0.071150 0.000000 0.000000 0.000000 0.000000 0.000000 0.000000 1.173707 2.121621 0.032940 -0.915224 5.075858 -2.395926 1.160364 21.641782 0.749550 0.000000 0.000000 0.000000 1.173707 2.121621 0.032940 0.852205 3.629367 -8.174247 0.000000 0.000000 0.000000 -7.663812 -9.938813 -55.360217 -179.999978 -65.797835 -179.999964 0.000000 0.000000 0.000000 1.173707 2.121621 0.032940 0.667949 8.774000 6.786663 0.000000 0.000000 0.000000 -3.279952 19.838332 36.986881 -179.999991 70.067769 -179.999991 0.000000 0.000000 0.000000 
